<svg id="Layer_1" data-name="Layer 1" xmlns="http://www.w3.org/2000/svg" viewBox="0 0 2000 2000"><defs><style>.cls-1{fill:#fff;}.cls-2{fill:#16d671;}.cls-3{fill:#20293a;}</style></defs><rect class="cls-1" width="2000" height="2000"/><path class="cls-2" d="M476.06,1076.74c5.41,2.54,11.14,4.77,16.85,6.84s11.51,4,17.34,5.73c11.66,3.51,23.5,6.43,35.4,8.92a497.18,497.18,0,0,0,72.23,9.51,568.69,568.69,0,0,0,72.69-.38,632.34,632.34,0,0,0,72-9.33A671.83,671.83,0,0,0,833,1080.8c11.56-3.51,23-7.25,34.42-11.34s22.67-8.35,33.87-12.86q33.56-13.69,65.87-30.2l16.11-8.42c5.51-2.85,11-5.8,16.51-8.57s11-5.65,16.63-8.38l8.35-4.12,8.4-4q33.59-16.15,68.25-30.3c23.12-9.37,46.62-18,70.59-25.32,47.89-14.76,97.73-24.44,148.2-27.11s101.49,1.23,150.35,13.85,95.2,33.6,135.21,62.74a1.94,1.94,0,0,1,.63,2.48,1.82,1.82,0,0,1-2.33.73A552.92,552.92,0,0,0,1535.8,964a498.41,498.41,0,0,0-70.26-15.87c-47.32-7.23-95.26-7.66-142.66-2.8s-94.33,14.63-140.67,27.21c-2.9.76-5.79,1.57-8.68,2.4s-5.79,1.63-8.67,2.49c-5.75,1.74-11.53,3.42-17.27,5.21-11.52,3.52-23,7.33-34.36,11.31-22.77,8-45.35,16.76-67.58,26.4l-8.33,3.64-8.3,3.73c-5.53,2.47-11,5-16.52,7.62l-33.22,15.92q-33.88,15.78-69,28.72a733.42,733.42,0,0,1-71.39,22.11,692.76,692.76,0,0,1-73.26,14.59c-49.29,7-99.41,8.31-148.76,2.84a507.07,507.07,0,0,1-73-13.6c-12-3.2-23.78-6.89-35.4-11.15-5.8-2.13-11.56-4.38-17.24-6.84s-11.21-5-16.71-8a1.89,1.89,0,0,1-1-2.23,1.8,1.8,0,0,1,2.47-1.06Z"/><path class="cls-3" d="M508.24,1148.21v-221H552v14c12-9.32,26-14,41.7-14,20.41,0,37.61,7.58,51.32,22.74s20.71,34.1,20.71,56.84c0,22.45-7,41.39-20.71,56.84-13.71,15.16-30.91,22.74-51.32,22.74a67.81,67.81,0,0,1-41.7-14v75.79Zm44.33-141.09c0,20.12,14.87,36.15,33.83,36.15a30.81,30.81,0,0,0,23.62-10.5c6.7-7,9.91-15.44,9.91-25.65,0-21-14.87-36.73-33.53-36.73C567.44,970.39,552.57,986.14,552.57,1007.12Z"/><path class="cls-3" d="M747.75,864h45.89V989.64l45-62.39h54.16L837.69,1004l60.89,82.26H843.51l-49.87-68.2v68.2H747.75Z"/><path class="cls-2" d="M680.42,890.08c0-7.63,2.55-13.85,7.35-18.65a26.51,26.51,0,0,1,18.94-7.35c7.63,0,13.85,2.55,18.65,7.35q7.64,7.2,7.64,18.65t-7.64,18.64c-4.8,4.81-11,7.35-18.65,7.35a26.46,26.46,0,0,1-18.94-7.35C683,903.92,680.42,897.71,680.42,890.08Z"/><rect class="cls-3" x="684.2" y="927.37" width="45.02" height="159.03"/><path class="cls-3" d="M983.15,975c-2.62-8.45-10.2-12.82-22.73-12.82-11.36,0-17.19,3.21-17.19,9.91,0,3.79,4.08,7.28,11.95,10.2l27.1,8.74c30.59,9.61,43.12,23.6,43.12,46.62,0,31.76-24.77,48.66-62.35,48.66-38.18,0-65.27-24.82-65.27-51H938c2.91,10.2,11.65,15.15,25.93,15.15,11.65,0,19.81-4.08,19.81-11.07,0-5-5-8.74-15.15-11.66l-27.68-8.16c-28.26-7.86-39.92-21.27-39.92-43.7,0-33.51,24.48-48.66,61.48-48.66,35.26,0,60.61,19.21,60.61,47.78Z"/><path class="cls-3" d="M1039.5,1086.26V863.86h45.89v222.4Z"/><path class="cls-3" d="M1100.2,890c0-7.63,2.55-13.85,7.35-18.66a26.51,26.51,0,0,1,18.94-7.35c7.63,0,13.85,2.55,18.65,7.35q7.63,7.21,7.64,18.66t-7.64,18.65c-4.8,4.81-11,7.35-18.65,7.35a26.46,26.46,0,0,1-18.94-7.35C1102.75,903.88,1100.2,897.66,1100.2,890Z"/><rect class="cls-3" x="1103.98" y="927.33" width="45.02" height="159.09"/><path class="cls-3" d="M1183.64,949.84c13.7-15.15,30.9-22.73,51.3-22.73a68.63,68.63,0,0,1,42,14V863.86h43.43v222.4h-43.43V1072a66,66,0,0,1-42,14.28c-20.4,0-37.6-7.58-51.3-22.74-13.7-15.44-20.4-34.39-20.4-56.84C1163.24,984,1169.94,965,1183.64,949.84Zm25.07,56.55c0,21,14.87,36.73,33.81,36.73,18.66,0,33.81-15.74,33.81-36.73,0-10.2-3.2-18.65-9.91-25.65s-14.57-10.49-23.9-10.49C1223.58,970.25,1208.71,986.28,1208.71,1006.39Z"/><path class="cls-3" d="M1493.71,1021.46A79.55,79.55,0,1,0,1336,1006.71a79.56,79.56,0,0,0,154.38,27h-43.31a39.58,39.58,0,0,1-31.21,15.55c-17.36,0-32.18-11.57-37.95-27.85ZM1377.9,991.14c5.77-16.28,20.59-27.86,37.95-27.86s32.17,11.58,38,27.86Z"/></svg>